M48
; DRILL file {KiCad (6.0.9)} date Sun Jul  2 11:08:18 2023
; FORMAT={-:-/ absolute / metric / decimal}
; #@! TF.CreationDate,2023-07-02T11:08:18+02:00
; #@! TF.GenerationSoftware,Kicad,Pcbnew,(6.0.9)
; #@! TF.FileFunction,Plated,1,2,PTH
FMAT,2
METRIC
; #@! TA.AperFunction,Plated,PTH,ViaDrill
T1C0.400
; #@! TA.AperFunction,Plated,PTH,ComponentDrill
T2C0.800
; #@! TA.AperFunction,Plated,PTH,ComponentDrill
T3C1.000
%
G90
G05
T1
X86.014Y-112.882
X88.515Y-118.195
X91.64Y-128.515
X92.722Y-131.81
X92.732Y-129.744
X93.374Y-126.809
X93.814Y-124.678
X93.909Y-113.31
X94.551Y-126.259
X95.084Y-114.835
X95.944Y-106.05
X95.944Y-119.367
X96.832Y-114.072
X101.308Y-116.975
X102.708Y-128.444
X102.825Y-129.916
X102.84Y-132.646
X104.421Y-122.903
X106.042Y-112.75
X106.506Y-115.56
X106.637Y-122.418
X108.208Y-116.12
X110.518Y-132.717
X111.954Y-105.331
X112.24Y-127.659
X115.048Y-119.502
X115.602Y-106.464
X118.127Y-130.567
X118.629Y-96.176
X121.283Y-126.866
X122.312Y-127.663
X123.185Y-130.279
X124.198Y-130.236
X127.804Y-112.934
X130.295Y-117.284
X132.08Y-128.934
X133.357Y-131.373
X134.159Y-66.346
X136.631Y-97.762
X137.689Y-74.422
X144.977Y-77.825
X146.92Y-78.515
X148.518Y-80.838
T2
X59.695Y-95.215
X59.695Y-100.215
X62.2Y-55.88
X62.2Y-76.2
X64.74Y-55.88
X64.74Y-76.2
X64.775Y-93.945
X64.775Y-101.565
X67.28Y-55.88
X67.28Y-76.2
X67.315Y-93.945
X67.315Y-101.565
X69.82Y-55.88
X69.82Y-76.2
X69.855Y-93.945
X69.855Y-101.565
X72.36Y-55.88
X72.36Y-76.2
X72.395Y-93.945
X72.395Y-101.565
X74.9Y-55.88
X74.9Y-76.2
X74.935Y-93.945
X74.935Y-101.565
X77.44Y-55.88
X77.44Y-76.2
X77.475Y-93.945
X77.475Y-101.565
X79.98Y-55.88
X79.98Y-76.2
X80.015Y-93.945
X80.015Y-101.565
X82.52Y-55.88
X82.52Y-76.2
X82.555Y-93.945
X82.555Y-101.565
X85.06Y-55.88
X85.06Y-76.2
X85.095Y-93.945
X85.095Y-101.565
X87.6Y-55.88
X87.6Y-76.2
X87.635Y-93.945
X87.635Y-101.565
X90.14Y-55.88
X90.14Y-76.2
X92.68Y-55.88
X92.68Y-76.2
X92.715Y-95.295
X92.715Y-100.295
X92.715Y-111.805
X92.715Y-116.805
X95.22Y-55.88
X95.22Y-76.2
X97.76Y-55.88
X97.76Y-76.2
X97.795Y-93.945
X97.795Y-101.565
X97.795Y-110.455
X97.795Y-118.075
X100.3Y-55.88
X100.3Y-76.2
X100.335Y-93.945
X100.335Y-101.565
X100.335Y-110.455
X100.335Y-118.075
X102.84Y-55.88
X102.84Y-76.2
X102.875Y-93.945
X102.875Y-101.565
X102.875Y-110.455
X102.875Y-118.075
X105.38Y-55.88
X105.38Y-76.2
X105.415Y-93.945
X105.415Y-101.565
X105.415Y-110.455
X105.415Y-118.075
X107.92Y-55.88
X107.92Y-76.2
X107.955Y-93.945
X107.955Y-101.565
X107.955Y-110.455
X107.955Y-118.075
X110.46Y-55.88
X110.46Y-76.2
X110.495Y-93.945
X110.495Y-101.565
X110.495Y-110.455
X110.495Y-118.075
X113.035Y-93.945
X113.035Y-101.565
X113.035Y-110.455
X113.035Y-118.075
X114.3Y-71.135
X114.3Y-76.135
X115.575Y-93.945
X115.575Y-101.565
X115.575Y-110.455
X115.575Y-118.075
X118.115Y-93.945
X118.115Y-101.565
X118.115Y-110.455
X118.115Y-118.075
X120.655Y-93.945
X120.655Y-101.565
X120.655Y-110.455
X120.655Y-118.075
X121.92Y-63.555
X121.92Y-68.555
X127.0Y-62.285
X127.0Y-69.905
X127.0Y-95.225
X127.0Y-100.225
X128.27Y-73.715
X129.54Y-62.285
X129.54Y-69.905
X132.08Y-62.285
X132.08Y-69.905
X132.08Y-93.955
X132.08Y-101.575
X133.35Y-106.655
X134.62Y-62.285
X134.62Y-69.905
X134.62Y-93.955
X134.62Y-101.575
X135.89Y-73.715
X137.16Y-62.285
X137.16Y-69.905
X137.16Y-93.955
X137.16Y-101.575
X139.7Y-62.285
X139.7Y-69.905
X139.7Y-93.955
X139.7Y-101.575
X140.97Y-106.655
X142.24Y-62.285
X142.24Y-69.905
X142.24Y-93.955
X142.24Y-101.575
X144.78Y-62.285
X144.78Y-69.905
X144.78Y-93.955
X144.78Y-101.575
X147.32Y-62.285
X147.32Y-69.905
X147.32Y-93.955
X147.32Y-101.575
X149.86Y-62.285
X149.86Y-69.905
X149.86Y-93.955
X149.86Y-101.575
X152.4Y-93.955
X152.4Y-101.575
X154.94Y-93.955
X154.94Y-101.575
T3
X62.2Y-52.07
X62.2Y-80.01
X64.74Y-52.07
X64.74Y-80.01
X67.28Y-52.07
X67.28Y-80.01
X69.82Y-52.07
X69.82Y-80.01
X69.85Y-90.145
X72.36Y-52.07
X72.36Y-80.01
X72.39Y-90.145
X74.9Y-52.07
X74.9Y-80.01
X74.93Y-90.145
X77.44Y-52.07
X77.44Y-80.01
X77.47Y-90.145
X79.98Y-52.07
X79.98Y-80.01
X80.01Y-90.145
X82.52Y-52.07
X82.52Y-80.01
X82.55Y-90.145
X85.06Y-52.07
X85.06Y-80.01
X85.09Y-90.145
X87.6Y-52.07
X87.6Y-80.01
X87.63Y-90.145
X90.14Y-52.07
X90.14Y-80.01
X92.68Y-52.07
X92.68Y-80.01
X95.22Y-52.07
X95.22Y-80.01
X97.76Y-52.07
X97.76Y-80.01
X100.3Y-52.07
X100.3Y-80.01
X102.84Y-52.07
X102.84Y-80.01
X102.87Y-90.145
X105.38Y-52.07
X105.38Y-80.01
X105.41Y-90.145
X107.92Y-52.07
X107.92Y-80.01
X107.95Y-90.145
X110.46Y-52.07
X110.46Y-80.01
X110.49Y-90.145
X113.03Y-90.145
X115.57Y-90.145
X118.11Y-90.145
X118.135Y-79.96
X120.65Y-90.145
X120.675Y-79.96
X123.215Y-79.96
X125.755Y-79.96
X128.295Y-79.96
X130.835Y-79.96
X132.08Y-52.045
X134.62Y-52.045
X137.16Y-52.045
X137.16Y-79.985
X137.16Y-90.145
X139.7Y-52.045
X139.7Y-79.985
X139.7Y-90.145
X142.24Y-52.045
X142.24Y-79.985
X142.24Y-90.145
X144.78Y-52.045
X144.78Y-79.985
X144.78Y-90.145
X147.32Y-52.045
X147.32Y-79.985
X147.32Y-90.145
X149.86Y-52.045
X149.86Y-79.985
X149.86Y-90.145
X152.4Y-52.045
X152.4Y-79.985
X152.4Y-90.145
X154.94Y-52.045
X154.94Y-79.985
X154.94Y-90.145
T0
M30
