G04 #@! TF.GenerationSoftware,KiCad,Pcbnew,(6.0.9)*
G04 #@! TF.CreationDate,2023-07-02T11:07:52+02:00*
G04 #@! TF.ProjectId,Cartucho_MSX_Tang_Nano_20k_Breakout,43617274-7563-4686-9f5f-4d53585f5461,rev?*
G04 #@! TF.SameCoordinates,Original*
G04 #@! TF.FileFunction,Copper,L1,Top*
G04 #@! TF.FilePolarity,Positive*
%FSLAX46Y46*%
G04 Gerber Fmt 4.6, Leading zero omitted, Abs format (unit mm)*
G04 Created by KiCad (PCBNEW (6.0.9)) date 2023-07-02 11:07:52*
%MOMM*%
%LPD*%
G01*
G04 APERTURE LIST*
G04 #@! TA.AperFunction,ComponentPad*
%ADD10R,1.600000X2.400000*%
G04 #@! TD*
G04 #@! TA.AperFunction,ComponentPad*
%ADD11O,1.600000X2.400000*%
G04 #@! TD*
G04 #@! TA.AperFunction,ComponentPad*
%ADD12R,1.700000X1.700000*%
G04 #@! TD*
G04 #@! TA.AperFunction,ComponentPad*
%ADD13O,1.700000X1.700000*%
G04 #@! TD*
G04 #@! TA.AperFunction,ComponentPad*
%ADD14C,1.600000*%
G04 #@! TD*
G04 #@! TA.AperFunction,ComponentPad*
%ADD15R,1.600000X1.600000*%
G04 #@! TD*
G04 #@! TA.AperFunction,ComponentPad*
%ADD16O,1.600000X1.600000*%
G04 #@! TD*
G04 #@! TA.AperFunction,SMDPad,CuDef*
%ADD17R,1.270000X7.620000*%
G04 #@! TD*
G04 #@! TA.AperFunction,ViaPad*
%ADD18C,0.800000*%
G04 #@! TD*
G04 #@! TA.AperFunction,Conductor*
%ADD19C,0.400000*%
G04 #@! TD*
G04 #@! TA.AperFunction,Conductor*
%ADD20C,0.250000*%
G04 #@! TD*
G04 APERTURE END LIST*
D10*
X110460000Y-55880000D03*
D11*
X107920000Y-55880000D03*
X105380000Y-55880000D03*
X102840000Y-55880000D03*
X100300000Y-55880000D03*
X97760000Y-55880000D03*
X95220000Y-55880000D03*
X92680000Y-55880000D03*
X90140000Y-55880000D03*
X87600000Y-55880000D03*
X85060000Y-55880000D03*
X82520000Y-55880000D03*
X79980000Y-55880000D03*
X77440000Y-55880000D03*
X74900000Y-55880000D03*
X72360000Y-55880000D03*
X69820000Y-55880000D03*
X67280000Y-55880000D03*
X64740000Y-55880000D03*
X62200000Y-55880000D03*
X62200000Y-76200000D03*
X64740000Y-76200000D03*
X67280000Y-76200000D03*
X69820000Y-76200000D03*
X72360000Y-76200000D03*
X74900000Y-76200000D03*
X77440000Y-76200000D03*
X79980000Y-76200000D03*
X82520000Y-76200000D03*
X85060000Y-76200000D03*
X87600000Y-76200000D03*
X90140000Y-76200000D03*
X92680000Y-76200000D03*
X95220000Y-76200000D03*
X97760000Y-76200000D03*
X100300000Y-76200000D03*
X102840000Y-76200000D03*
X105380000Y-76200000D03*
X107920000Y-76200000D03*
X110460000Y-76200000D03*
D12*
X110460000Y-80010000D03*
D13*
X107920000Y-80010000D03*
X105380000Y-80010000D03*
X102840000Y-80010000D03*
X100300000Y-80010000D03*
X97760000Y-80010000D03*
X95220000Y-80010000D03*
X92680000Y-80010000D03*
X90140000Y-80010000D03*
X87600000Y-80010000D03*
X85060000Y-80010000D03*
X82520000Y-80010000D03*
X79980000Y-80010000D03*
X77440000Y-80010000D03*
X74900000Y-80010000D03*
X72360000Y-80010000D03*
X69820000Y-80010000D03*
X67280000Y-80010000D03*
X64740000Y-80010000D03*
X62200000Y-80010000D03*
D14*
X114300000Y-76135000D03*
X114300000Y-71135000D03*
X127000000Y-95225000D03*
X127000000Y-100225000D03*
X59695000Y-100215000D03*
X59695000Y-95215000D03*
D15*
X64775000Y-101565000D03*
D16*
X67315000Y-101565000D03*
X69855000Y-101565000D03*
X72395000Y-101565000D03*
X74935000Y-101565000D03*
X77475000Y-101565000D03*
X80015000Y-101565000D03*
X82555000Y-101565000D03*
X85095000Y-101565000D03*
X87635000Y-101565000D03*
X87635000Y-93945000D03*
X85095000Y-93945000D03*
X82555000Y-93945000D03*
X80015000Y-93945000D03*
X77475000Y-93945000D03*
X74935000Y-93945000D03*
X72395000Y-93945000D03*
X69855000Y-93945000D03*
X67315000Y-93945000D03*
X64775000Y-93945000D03*
D17*
X142240000Y-139065000D03*
X139700000Y-139065000D03*
X137160000Y-139065000D03*
X134620000Y-139065000D03*
X132080000Y-139065000D03*
X129540000Y-139065000D03*
X127000000Y-139065000D03*
X124460000Y-139065000D03*
X121920000Y-139065000D03*
X119380000Y-139065000D03*
X116840000Y-139065000D03*
X114300000Y-139065000D03*
X111760000Y-139065000D03*
X109220000Y-139065000D03*
X106680000Y-139065000D03*
X104140000Y-139065000D03*
X101600000Y-139065000D03*
X99060000Y-139065000D03*
X96520000Y-139065000D03*
X93980000Y-139065000D03*
X91440000Y-139065000D03*
X88900000Y-137795000D03*
X86360000Y-139065000D03*
X83820000Y-139065000D03*
X81280000Y-139065000D03*
D14*
X128270000Y-73715000D03*
D16*
X135890000Y-73715000D03*
D12*
X110460000Y-52070000D03*
D13*
X107920000Y-52070000D03*
X105380000Y-52070000D03*
X102840000Y-52070000D03*
X100300000Y-52070000D03*
X97760000Y-52070000D03*
X95220000Y-52070000D03*
X92680000Y-52070000D03*
X90140000Y-52070000D03*
X87600000Y-52070000D03*
X85060000Y-52070000D03*
X82520000Y-52070000D03*
X79980000Y-52070000D03*
X77440000Y-52070000D03*
X74900000Y-52070000D03*
X72360000Y-52070000D03*
X69820000Y-52070000D03*
X67280000Y-52070000D03*
X64740000Y-52070000D03*
X62200000Y-52070000D03*
D12*
X137160000Y-79985000D03*
D13*
X139700000Y-79985000D03*
X142240000Y-79985000D03*
X144780000Y-79985000D03*
X147320000Y-79985000D03*
X149860000Y-79985000D03*
X152400000Y-79985000D03*
X154940000Y-79985000D03*
D15*
X97795000Y-118075000D03*
D16*
X100335000Y-118075000D03*
X102875000Y-118075000D03*
X105415000Y-118075000D03*
X107955000Y-118075000D03*
X110495000Y-118075000D03*
X113035000Y-118075000D03*
X115575000Y-118075000D03*
X118115000Y-118075000D03*
X120655000Y-118075000D03*
X120655000Y-110455000D03*
X118115000Y-110455000D03*
X115575000Y-110455000D03*
X113035000Y-110455000D03*
X110495000Y-110455000D03*
X107955000Y-110455000D03*
X105415000Y-110455000D03*
X102875000Y-110455000D03*
X100335000Y-110455000D03*
X97795000Y-110455000D03*
D14*
X92715000Y-100295000D03*
X92715000Y-95295000D03*
X121920000Y-68555000D03*
X121920000Y-63555000D03*
X133350000Y-106655000D03*
D16*
X140970000Y-106655000D03*
D14*
X92715000Y-116805000D03*
X92715000Y-111805000D03*
D12*
X69850000Y-90145000D03*
D13*
X72390000Y-90145000D03*
X74930000Y-90145000D03*
X77470000Y-90145000D03*
X80010000Y-90145000D03*
X82550000Y-90145000D03*
X85090000Y-90145000D03*
X87630000Y-90145000D03*
D12*
X118135000Y-79960000D03*
D13*
X120675000Y-79960000D03*
X123215000Y-79960000D03*
X125755000Y-79960000D03*
X128295000Y-79960000D03*
X130835000Y-79960000D03*
D12*
X132080000Y-52045000D03*
D13*
X134620000Y-52045000D03*
X137160000Y-52045000D03*
X139700000Y-52045000D03*
X142240000Y-52045000D03*
X144780000Y-52045000D03*
X147320000Y-52045000D03*
X149860000Y-52045000D03*
X152400000Y-52045000D03*
X154940000Y-52045000D03*
D15*
X127000000Y-69905000D03*
D16*
X129540000Y-69905000D03*
X132080000Y-69905000D03*
X134620000Y-69905000D03*
X137160000Y-69905000D03*
X139700000Y-69905000D03*
X142240000Y-69905000D03*
X144780000Y-69905000D03*
X147320000Y-69905000D03*
X149860000Y-69905000D03*
X149860000Y-62285000D03*
X147320000Y-62285000D03*
X144780000Y-62285000D03*
X142240000Y-62285000D03*
X139700000Y-62285000D03*
X137160000Y-62285000D03*
X134620000Y-62285000D03*
X132080000Y-62285000D03*
X129540000Y-62285000D03*
X127000000Y-62285000D03*
D15*
X132080000Y-101575000D03*
D16*
X134620000Y-101575000D03*
X137160000Y-101575000D03*
X139700000Y-101575000D03*
X142240000Y-101575000D03*
X144780000Y-101575000D03*
X147320000Y-101575000D03*
X149860000Y-101575000D03*
X152400000Y-101575000D03*
X154940000Y-101575000D03*
X154940000Y-93955000D03*
X152400000Y-93955000D03*
X149860000Y-93955000D03*
X147320000Y-93955000D03*
X144780000Y-93955000D03*
X142240000Y-93955000D03*
X139700000Y-93955000D03*
X137160000Y-93955000D03*
X134620000Y-93955000D03*
X132080000Y-93955000D03*
D15*
X97795000Y-101565000D03*
D16*
X100335000Y-101565000D03*
X102875000Y-101565000D03*
X105415000Y-101565000D03*
X107955000Y-101565000D03*
X110495000Y-101565000D03*
X113035000Y-101565000D03*
X115575000Y-101565000D03*
X118115000Y-101565000D03*
X120655000Y-101565000D03*
X120655000Y-93945000D03*
X118115000Y-93945000D03*
X115575000Y-93945000D03*
X113035000Y-93945000D03*
X110495000Y-93945000D03*
X107955000Y-93945000D03*
X105415000Y-93945000D03*
X102875000Y-93945000D03*
X100335000Y-93945000D03*
X97795000Y-93945000D03*
D12*
X102870000Y-90145000D03*
D13*
X105410000Y-90145000D03*
X107950000Y-90145000D03*
X110490000Y-90145000D03*
X113030000Y-90145000D03*
X115570000Y-90145000D03*
X118110000Y-90145000D03*
X120650000Y-90145000D03*
D12*
X137160000Y-90145000D03*
D13*
X139700000Y-90145000D03*
X142240000Y-90145000D03*
X144780000Y-90145000D03*
X147320000Y-90145000D03*
X149860000Y-90145000D03*
X152400000Y-90145000D03*
X154940000Y-90145000D03*
D18*
X91640200Y-128515200D03*
X136631500Y-97762200D03*
X92731800Y-129743800D03*
X86014300Y-112882100D03*
X124197800Y-130235700D03*
X122312500Y-127662700D03*
X121283100Y-126865900D03*
X104420700Y-122903000D03*
X92722000Y-131809700D03*
X112240500Y-127659000D03*
X93909100Y-113309700D03*
X93814300Y-124678500D03*
X130295100Y-117284300D03*
X108207600Y-116120500D03*
X96831800Y-114072400D03*
X94551100Y-126258800D03*
X127803800Y-112934200D03*
X106637200Y-122418500D03*
X123184800Y-130279300D03*
X93374100Y-126809000D03*
X95084100Y-114835200D03*
X106505800Y-115560400D03*
X146920300Y-78515000D03*
X106042400Y-112750300D03*
X102839900Y-132645900D03*
X102825400Y-129916500D03*
X88515300Y-118194800D03*
X102707900Y-128444200D03*
X115048500Y-119502400D03*
X118629500Y-96176300D03*
X118127200Y-130566800D03*
X115601600Y-106463600D03*
X101308300Y-116975500D03*
X95943500Y-106049800D03*
X95943500Y-119367500D03*
X111954000Y-105330700D03*
X110518200Y-132717300D03*
X137689300Y-74422400D03*
X148517900Y-80838200D03*
X144976700Y-77825100D03*
X134158500Y-66345600D03*
X133357500Y-131372700D03*
X132080000Y-128934200D03*
D19*
X97795000Y-101565000D02*
X96594900Y-101565000D01*
X97795000Y-92744900D02*
X108379400Y-82160500D01*
X132080000Y-93955000D02*
X130879900Y-93955000D01*
X92715000Y-100295000D02*
X66870100Y-100295000D01*
X129609900Y-95225000D02*
X130879900Y-93955000D01*
X93985000Y-118075000D02*
X92715000Y-116805000D01*
X96594900Y-118075000D02*
X93985000Y-118075000D01*
X97795000Y-118075000D02*
X96594900Y-118075000D01*
X127000000Y-95225000D02*
X129609900Y-95225000D01*
X121920000Y-68555000D02*
X124449900Y-68555000D01*
X97795000Y-93945000D02*
X97795000Y-92744900D01*
X121964900Y-80478000D02*
X121964900Y-79960000D01*
X108379400Y-82160500D02*
X120282400Y-82160500D01*
X127000000Y-69905000D02*
X125799900Y-69905000D01*
X120282400Y-82160500D02*
X121964900Y-80478000D01*
X123215000Y-79960000D02*
X121964900Y-79960000D01*
X124449900Y-68555000D02*
X125799900Y-69905000D01*
X95324900Y-100295000D02*
X92715000Y-100295000D01*
X65975100Y-101190000D02*
X65975100Y-101565000D01*
X125755000Y-79960000D02*
X123215000Y-79960000D01*
X64775000Y-101565000D02*
X65975100Y-101565000D01*
X96594900Y-101565000D02*
X95324900Y-100295000D01*
X66870100Y-100295000D02*
X65975100Y-101190000D01*
X66114900Y-93945000D02*
X66114900Y-94320000D01*
X121920000Y-63555000D02*
X129540000Y-63555000D01*
X100335000Y-110455000D02*
X99134900Y-110455000D01*
X149860000Y-69905000D02*
X148659900Y-69905000D01*
X121880000Y-63555000D02*
X121920000Y-63555000D01*
X147459900Y-68332000D02*
X148659900Y-69532000D01*
X66114900Y-94320000D02*
X65219900Y-95215000D01*
X92731800Y-129606800D02*
X92731800Y-129743800D01*
X98157900Y-111805000D02*
X99134900Y-110828000D01*
X100335000Y-93945000D02*
X99134900Y-93945000D01*
X99134900Y-110828000D02*
X99134900Y-110455000D01*
X118135000Y-79960000D02*
X120675000Y-79960000D01*
X133419900Y-94328000D02*
X133419900Y-93955000D01*
X148659900Y-69532000D02*
X148659900Y-69905000D01*
X98157900Y-95295000D02*
X99134900Y-94318000D01*
X99134900Y-94318000D02*
X99134900Y-93945000D01*
X120655000Y-101565000D02*
X121855100Y-101565000D01*
X67315000Y-93945000D02*
X66114900Y-93945000D01*
X127000000Y-100225000D02*
X127522900Y-100225000D01*
X92715000Y-95295000D02*
X98157900Y-95295000D01*
X121855100Y-101565000D02*
X123195100Y-100225000D01*
X123195100Y-100225000D02*
X127000000Y-100225000D01*
X136631500Y-97762200D02*
X150300100Y-97762200D01*
X134317000Y-68332000D02*
X147459900Y-68332000D01*
X92715000Y-111805000D02*
X98157900Y-111805000D01*
X134620000Y-93955000D02*
X133419900Y-93955000D01*
X129540000Y-63555000D02*
X134317000Y-68332000D01*
X129540000Y-62285000D02*
X129540000Y-63485100D01*
X65219900Y-95215000D02*
X59695000Y-95215000D01*
X150300100Y-97762200D02*
X153739900Y-101202000D01*
X127522900Y-100225000D02*
X133419900Y-94328000D01*
X153739900Y-101202000D02*
X153739900Y-101575000D01*
X154940000Y-101575000D02*
X153739900Y-101575000D01*
X114300000Y-71135000D02*
X121880000Y-63555000D01*
X129540000Y-63485100D02*
X129540000Y-63555000D01*
X91640200Y-128515200D02*
X92731800Y-129606800D01*
X123766800Y-76135000D02*
X114300000Y-76135000D01*
X128295000Y-79960000D02*
X127044900Y-79960000D01*
X110460000Y-76200000D02*
X110460000Y-74599900D01*
X114300000Y-76135000D02*
X112764900Y-74599900D01*
X112764900Y-74599900D02*
X110460000Y-74599900D01*
X127044900Y-79960000D02*
X127044900Y-79413100D01*
X130835000Y-79960000D02*
X128295000Y-79960000D01*
X127044900Y-79413100D02*
X123766800Y-76135000D01*
D20*
X86360000Y-134870800D02*
X87570900Y-133659900D01*
X88900000Y-137795000D02*
X88900000Y-133659900D01*
X86360000Y-139065000D02*
X86360000Y-134870800D01*
X87570900Y-133659900D02*
X88900000Y-133659900D01*
X109220000Y-134878900D02*
X103532500Y-129191400D01*
X109220000Y-139065000D02*
X109220000Y-134878900D01*
X102404300Y-129191400D02*
X86095000Y-112882100D01*
X86095000Y-112882100D02*
X86014300Y-112882100D01*
X103532500Y-129191400D02*
X102404300Y-129191400D01*
X105210000Y-116246800D02*
X106685000Y-117721800D01*
X100998300Y-116246800D02*
X105210000Y-116246800D01*
X106685000Y-118448400D02*
X108756400Y-120519800D01*
X124022700Y-128387800D02*
X129540000Y-133905100D01*
X100335000Y-116910100D02*
X100998300Y-116246800D01*
X110078400Y-120519800D02*
X117946400Y-128387800D01*
X108756400Y-120519800D02*
X110078400Y-120519800D01*
X100335000Y-118075000D02*
X100335000Y-116910100D01*
X117946400Y-128387800D02*
X124022700Y-128387800D01*
X129540000Y-133905100D02*
X129540000Y-139065000D01*
X106685000Y-117721800D02*
X106685000Y-118448400D01*
X117078100Y-129391500D02*
X123353600Y-129391500D01*
X123353600Y-129391500D02*
X124197800Y-130235700D01*
X102875000Y-118075000D02*
X104000100Y-118075000D01*
X109331700Y-121645100D02*
X117078100Y-129391500D01*
X107288900Y-121645100D02*
X109331700Y-121645100D01*
X104000100Y-118356300D02*
X107288900Y-121645100D01*
X104000100Y-118075000D02*
X104000100Y-118356300D01*
X108535000Y-121195000D02*
X109518200Y-121195000D01*
X105415000Y-118075000D02*
X108535000Y-121195000D01*
X127000000Y-132005600D02*
X127000000Y-139065000D01*
X117264600Y-128941400D02*
X123935800Y-128941400D01*
X109518200Y-121195000D02*
X117264600Y-128941400D01*
X123935800Y-128941400D02*
X127000000Y-132005600D01*
X109080100Y-118075000D02*
X109080100Y-118277400D01*
X118465400Y-127662700D02*
X122312500Y-127662700D01*
X109080100Y-118277400D02*
X118465400Y-127662700D01*
X107955000Y-118075000D02*
X109080100Y-118075000D01*
X110495000Y-118075000D02*
X111620100Y-118075000D01*
X120129600Y-126865900D02*
X111620100Y-118356400D01*
X111620100Y-118356400D02*
X111620100Y-118075000D01*
X121283100Y-126865900D02*
X120129600Y-126865900D01*
X109176700Y-127659000D02*
X112240500Y-127659000D01*
X104420700Y-122903000D02*
X109176700Y-127659000D01*
X92722000Y-131809700D02*
X91440000Y-133091700D01*
X91440000Y-133091700D02*
X91440000Y-139065000D01*
X94013700Y-124678500D02*
X93814300Y-124678500D01*
X134620000Y-101575000D02*
X133494800Y-100449800D01*
X130954900Y-103235800D02*
X120705100Y-113485600D01*
X120705100Y-113485600D02*
X98885100Y-113485600D01*
X131124800Y-100449800D02*
X130954900Y-100619700D01*
X133494800Y-100449800D02*
X131124800Y-100449800D01*
X101600000Y-132264800D02*
X94013700Y-124678500D01*
X98709200Y-113309700D02*
X93909100Y-113309700D01*
X101600000Y-139065000D02*
X101600000Y-132264800D01*
X98885100Y-113485600D02*
X98709200Y-113309700D01*
X130954900Y-100619700D02*
X130954900Y-103235800D01*
X130295100Y-117284300D02*
X129131300Y-116120500D01*
X129131300Y-116120500D02*
X108207600Y-116120500D01*
X99060000Y-130767700D02*
X99060000Y-139065000D01*
X138574900Y-101856300D02*
X136580400Y-103850800D01*
X136580400Y-103850800D02*
X131601300Y-103850800D01*
X139700000Y-101575000D02*
X138574900Y-101575000D01*
X121379700Y-114072400D02*
X96831800Y-114072400D01*
X131601300Y-103850800D02*
X121379700Y-114072400D01*
X94551100Y-126258800D02*
X99060000Y-130767700D01*
X138574900Y-101575000D02*
X138574900Y-101856300D01*
X142240000Y-101575000D02*
X142240000Y-107005600D01*
X122747100Y-129841600D02*
X123184800Y-130279300D01*
X106637200Y-122418500D02*
X109468500Y-122418500D01*
X109468500Y-122418500D02*
X116891600Y-129841600D01*
X136311400Y-112934200D02*
X127803800Y-112934200D01*
X142240000Y-107005600D02*
X136311400Y-112934200D01*
X116891600Y-129841600D02*
X122747100Y-129841600D01*
X95084100Y-114835200D02*
X135047100Y-114835200D01*
X144780000Y-105102300D02*
X144780000Y-101575000D01*
X135047100Y-114835200D02*
X144780000Y-105102300D01*
X93374100Y-126809000D02*
X96520000Y-129954900D01*
X96520000Y-129954900D02*
X96520000Y-139065000D01*
X135236500Y-115331200D02*
X147320000Y-103247700D01*
X106505800Y-115560400D02*
X106735000Y-115331200D01*
X106735000Y-115331200D02*
X135236500Y-115331200D01*
X147320000Y-103247700D02*
X147320000Y-102700100D01*
X147320000Y-101575000D02*
X147320000Y-102700100D01*
X63635500Y-102562500D02*
X64462500Y-103389500D01*
X118493300Y-95160000D02*
X109077200Y-95160000D01*
X64462500Y-103389500D02*
X65341600Y-103389500D01*
X119529800Y-94123500D02*
X118493300Y-95160000D01*
X119529800Y-93475700D02*
X119529800Y-94123500D01*
X66445900Y-97795000D02*
X63635500Y-100605400D01*
X134696100Y-78309400D02*
X119529800Y-93475700D01*
X106442200Y-97795000D02*
X66445900Y-97795000D01*
X65341600Y-103389500D02*
X93980000Y-132027900D01*
X143643400Y-78576100D02*
X143376700Y-78309400D01*
X63635500Y-100605400D02*
X63635500Y-102562500D01*
X146859200Y-78576100D02*
X143643400Y-78576100D01*
X143376700Y-78309400D02*
X134696100Y-78309400D01*
X146920300Y-78515000D02*
X146859200Y-78576100D01*
X93980000Y-132027900D02*
X93980000Y-139065000D01*
X109077200Y-95160000D02*
X106442200Y-97795000D01*
X151274900Y-101575000D02*
X151274900Y-101341900D01*
X120803800Y-112750300D02*
X106042400Y-112750300D01*
X151274900Y-101341900D02*
X149866500Y-99933500D01*
X130367800Y-103186300D02*
X120803800Y-112750300D01*
X149866500Y-99933500D02*
X130983400Y-99933500D01*
X152400000Y-101575000D02*
X151274900Y-101575000D01*
X130983400Y-99933500D02*
X130367800Y-100549100D01*
X130367800Y-100549100D02*
X130367800Y-103186300D01*
X70980100Y-101798200D02*
X92743700Y-123561800D01*
X70980100Y-101565000D02*
X70980100Y-101798200D01*
X93755800Y-123561800D02*
X102839900Y-132645900D01*
X92743700Y-123561800D02*
X93755800Y-123561800D01*
X69855000Y-101565000D02*
X70980100Y-101565000D01*
X72395000Y-101565000D02*
X73520100Y-101565000D01*
X73520100Y-102163800D02*
X89035200Y-117678900D01*
X89035200Y-117678900D02*
X89560400Y-117678900D01*
X106680000Y-134798500D02*
X106680000Y-139065000D01*
X73520100Y-101565000D02*
X73520100Y-102163800D01*
X89560400Y-117678900D02*
X106680000Y-134798500D01*
X85733900Y-113627400D02*
X86194000Y-113627400D01*
X102483100Y-129916500D02*
X102825400Y-129916500D01*
X86194000Y-113627400D02*
X102483100Y-129916500D01*
X74935000Y-102690100D02*
X74935000Y-102828500D01*
X74935000Y-102828500D02*
X85733900Y-113627400D01*
X74935000Y-101565000D02*
X74935000Y-102690100D01*
X104140000Y-132895100D02*
X104140000Y-139065000D01*
X89439700Y-118194800D02*
X104140000Y-132895100D01*
X88515300Y-118194800D02*
X89439700Y-118194800D01*
X80015000Y-101565000D02*
X80015000Y-105751300D01*
X80015000Y-105751300D02*
X102707900Y-128444200D01*
X98920200Y-118489400D02*
X109474000Y-129043200D01*
X95496500Y-116949800D02*
X98733800Y-116949800D01*
X109474000Y-129043200D02*
X110994300Y-129043200D01*
X110994300Y-129043200D02*
X116840000Y-134888900D01*
X116840000Y-134888900D02*
X116840000Y-139065000D01*
X98733800Y-116949800D02*
X98920200Y-117136200D01*
X82555000Y-104008300D02*
X95496500Y-116949800D01*
X98920200Y-117136200D02*
X98920200Y-118489400D01*
X82555000Y-101565000D02*
X82555000Y-104008300D01*
X114305000Y-117741200D02*
X113473700Y-116909900D01*
X94976600Y-115793200D02*
X85095000Y-105911600D01*
X105713100Y-115793200D02*
X94976600Y-115793200D01*
X85095000Y-105911600D02*
X85095000Y-101565000D01*
X115048500Y-119502400D02*
X114305000Y-118758900D01*
X106829800Y-116909900D02*
X105713100Y-115793200D01*
X113473700Y-116909900D02*
X106829800Y-116909900D01*
X114305000Y-118758900D02*
X114305000Y-117741200D01*
X104000100Y-101565000D02*
X104000100Y-101283600D01*
X104000100Y-101283600D02*
X109107400Y-96176300D01*
X109107400Y-96176300D02*
X118629500Y-96176300D01*
X102875000Y-101565000D02*
X104000100Y-101565000D01*
X121920000Y-134359600D02*
X121920000Y-139065000D01*
X118127200Y-130566800D02*
X121920000Y-134359600D01*
X118115000Y-101565000D02*
X118115000Y-102690100D01*
X115601600Y-105203500D02*
X115601600Y-106463600D01*
X118115000Y-102690100D02*
X115601600Y-105203500D01*
X101610600Y-118419400D02*
X109266200Y-126075000D01*
X101308300Y-116975500D02*
X101610600Y-117277800D01*
X109266200Y-126075000D02*
X111682100Y-126075000D01*
X111682100Y-126075000D02*
X119380000Y-133772900D01*
X101610600Y-117277800D02*
X101610600Y-118419400D01*
X119380000Y-133772900D02*
X119380000Y-139065000D01*
X100335000Y-101565000D02*
X100335000Y-102690100D01*
X114300000Y-134852300D02*
X114300000Y-139065000D01*
X100335000Y-102690100D02*
X96975300Y-106049800D01*
X95943500Y-119367500D02*
X98815200Y-119367500D01*
X98815200Y-119367500D02*
X114300000Y-134852300D01*
X96975300Y-106049800D02*
X95943500Y-106049800D01*
X115575000Y-101565000D02*
X111954000Y-105186000D01*
X111954000Y-105186000D02*
X111954000Y-105330700D01*
X111760000Y-133959100D02*
X111760000Y-139065000D01*
X110518200Y-132717300D02*
X111760000Y-133959100D01*
X149860000Y-53220100D02*
X151035000Y-54395100D01*
X151035000Y-54395100D02*
X151035000Y-70333300D01*
X140970000Y-101248500D02*
X140970000Y-106655000D01*
X132080000Y-101575000D02*
X133205100Y-101575000D01*
X146945900Y-74422400D02*
X137689300Y-74422400D01*
X135073200Y-102719200D02*
X135890000Y-101902400D01*
X136628500Y-100437500D02*
X140159000Y-100437500D01*
X151035000Y-70333300D02*
X146945900Y-74422400D01*
X133205100Y-101575000D02*
X133205100Y-101856300D01*
X149860000Y-52045000D02*
X149860000Y-53220100D01*
X133205100Y-101856300D02*
X134068000Y-102719200D01*
X135890000Y-101902400D02*
X135890000Y-101176000D01*
X140159000Y-100437500D02*
X140970000Y-101248500D01*
X135890000Y-101176000D02*
X136628500Y-100437500D01*
X134068000Y-102719200D02*
X135073200Y-102719200D01*
X119240100Y-118356400D02*
X120984000Y-120100300D01*
X118115000Y-118075000D02*
X119240100Y-118075000D01*
X119240100Y-118075000D02*
X119240100Y-118356400D01*
X137160000Y-132983500D02*
X137160000Y-139065000D01*
X124276800Y-120100300D02*
X137160000Y-132983500D01*
X120984000Y-120100300D02*
X124276800Y-120100300D01*
X131998600Y-97644100D02*
X121780100Y-107862600D01*
X153764900Y-79985000D02*
X153764900Y-80350200D01*
X140970000Y-90775000D02*
X138430000Y-93315000D01*
X138430000Y-94282400D02*
X135068300Y-97644100D01*
X135068300Y-97644100D02*
X131998600Y-97644100D01*
X120655000Y-110455000D02*
X121780100Y-110455000D01*
X147614800Y-84632000D02*
X146086500Y-84632000D01*
X153764900Y-80350200D02*
X149669600Y-84445500D01*
X149669600Y-84445500D02*
X147801300Y-84445500D01*
X140970000Y-89748500D02*
X140970000Y-90775000D01*
X138430000Y-93315000D02*
X138430000Y-94282400D01*
X146086500Y-84632000D02*
X140970000Y-89748500D01*
X147801300Y-84445500D02*
X147614800Y-84632000D01*
X154940000Y-79985000D02*
X153764900Y-79985000D01*
X121780100Y-107862600D02*
X121780100Y-110455000D01*
X151053400Y-78791600D02*
X149860000Y-79985000D01*
X133875400Y-99483300D02*
X137905700Y-95453000D01*
X128521200Y-101758300D02*
X130796200Y-99483300D01*
X143510000Y-89724200D02*
X148169200Y-85065000D01*
X143510000Y-91079600D02*
X143510000Y-89724200D01*
X151559600Y-85065000D02*
X156117900Y-80506700D01*
X117581800Y-111618000D02*
X121299400Y-111618000D01*
X148169200Y-85065000D02*
X151559600Y-85065000D01*
X156117900Y-79460400D02*
X155449100Y-78791600D01*
X156117900Y-80506700D02*
X156117900Y-79460400D01*
X140970000Y-94341700D02*
X140970000Y-93619600D01*
X128521200Y-104396200D02*
X128521200Y-101758300D01*
X155449100Y-78791600D02*
X151053400Y-78791600D01*
X139858700Y-95453000D02*
X140970000Y-94341700D01*
X121299400Y-111618000D02*
X128521200Y-104396200D01*
X137905700Y-95453000D02*
X139858700Y-95453000D01*
X116700100Y-110455000D02*
X116700100Y-110736300D01*
X130796200Y-99483300D02*
X133875400Y-99483300D01*
X140970000Y-93619600D02*
X143510000Y-91079600D01*
X116700100Y-110736300D02*
X117581800Y-111618000D01*
X115575000Y-110455000D02*
X116700100Y-110455000D01*
X147320000Y-79985000D02*
X146144900Y-79985000D01*
X119240100Y-101381200D02*
X127978000Y-92643300D01*
X130040800Y-92643300D02*
X141524000Y-81160100D01*
X113035000Y-110455000D02*
X113035000Y-109329900D01*
X146144900Y-80352300D02*
X146144900Y-79985000D01*
X113760800Y-109329900D02*
X119240100Y-103850600D01*
X113035000Y-109329900D02*
X113760800Y-109329900D01*
X145337100Y-81160100D02*
X146144900Y-80352300D01*
X141524000Y-81160100D02*
X145337100Y-81160100D01*
X127978000Y-92643300D02*
X130040800Y-92643300D01*
X119240100Y-103850600D02*
X119240100Y-101381200D01*
X135249400Y-79705300D02*
X136195100Y-78759600D01*
X109225000Y-101211500D02*
X113305600Y-97130900D01*
X113305600Y-97130900D02*
X119091100Y-97130900D01*
X109320100Y-111629900D02*
X102413300Y-111629900D01*
X102413300Y-111629900D02*
X101702500Y-110919100D01*
X136195100Y-78759600D02*
X142744700Y-78759600D01*
X135249400Y-80972600D02*
X135249400Y-79705300D01*
X142744700Y-78759600D02*
X143604900Y-79619800D01*
X144780000Y-79985000D02*
X143604900Y-79985000D01*
X110495000Y-110455000D02*
X109320100Y-111629900D01*
X109225000Y-102497800D02*
X109225000Y-101211500D01*
X101702500Y-110020300D02*
X109225000Y-102497800D01*
X119091100Y-97130900D02*
X135249400Y-80972600D01*
X101702500Y-110919100D02*
X101702500Y-110020300D01*
X143604900Y-79619800D02*
X143604900Y-79985000D01*
X142240000Y-79985000D02*
X141064900Y-79985000D01*
X118392000Y-99681300D02*
X120296300Y-99681300D01*
X141064900Y-80350200D02*
X141064900Y-79985000D01*
X120296300Y-99681300D02*
X134537400Y-85440200D01*
X109080100Y-109725300D02*
X116845000Y-101960400D01*
X107955000Y-110455000D02*
X109080100Y-110455000D01*
X116845000Y-101228300D02*
X118392000Y-99681300D01*
X109080100Y-110455000D02*
X109080100Y-109725300D01*
X134537400Y-85440200D02*
X135974900Y-85440200D01*
X116845000Y-101960400D02*
X116845000Y-101228300D01*
X135974900Y-85440200D02*
X141064900Y-80350200D01*
X106540100Y-109651200D02*
X114305000Y-101886300D01*
X114305000Y-101886300D02*
X114305000Y-101242300D01*
X139700000Y-79985000D02*
X138524900Y-79985000D01*
X105415000Y-110455000D02*
X106540100Y-110455000D01*
X117129200Y-98418100D02*
X120922800Y-98418100D01*
X106540100Y-110455000D02*
X106540100Y-109651200D01*
X114305000Y-101242300D02*
X117129200Y-98418100D01*
X120922800Y-98418100D02*
X138524900Y-80816000D01*
X138524900Y-80816000D02*
X138524900Y-79985000D01*
X104000100Y-110455000D02*
X104000100Y-109704500D01*
X102875000Y-110455000D02*
X104000100Y-110455000D01*
X119351200Y-97581100D02*
X135984900Y-80947400D01*
X137160000Y-79985000D02*
X135984900Y-79985000D01*
X111765000Y-101219500D02*
X115403400Y-97581100D01*
X115403400Y-97581100D02*
X119351200Y-97581100D01*
X111765000Y-101939600D02*
X111765000Y-101219500D01*
X135984900Y-80947400D02*
X135984900Y-79985000D01*
X104000100Y-109704500D02*
X111765000Y-101939600D01*
X129540000Y-69905000D02*
X130665100Y-69905000D01*
X130665100Y-70748800D02*
X130665100Y-69905000D01*
X148517900Y-80838200D02*
X148517900Y-79087100D01*
X145731100Y-76300300D02*
X136216600Y-76300300D01*
X136216600Y-76300300D02*
X130665100Y-70748800D01*
X148517900Y-79087100D02*
X145731100Y-76300300D01*
X156631800Y-117508200D02*
X156631800Y-79337600D01*
X135743100Y-75184700D02*
X132080000Y-71521600D01*
X142240000Y-131900000D02*
X156631800Y-117508200D01*
X142240000Y-139065000D02*
X142240000Y-131900000D01*
X152478900Y-75184700D02*
X135743100Y-75184700D01*
X132080000Y-71521600D02*
X132080000Y-69905000D01*
X156631800Y-79337600D02*
X152478900Y-75184700D01*
X133494900Y-69905000D02*
X133494900Y-69623700D01*
X128354300Y-70311000D02*
X135868400Y-77825100D01*
X129041700Y-68756000D02*
X128354300Y-69443400D01*
X134620000Y-69905000D02*
X133494900Y-69905000D01*
X132627200Y-68756000D02*
X129041700Y-68756000D01*
X128354300Y-69443400D02*
X128354300Y-70311000D01*
X133494900Y-69623700D02*
X132627200Y-68756000D01*
X135868400Y-77825100D02*
X144976700Y-77825100D01*
X116700100Y-118075000D02*
X116700100Y-117793700D01*
X115575000Y-118075000D02*
X116700100Y-118075000D01*
X116700100Y-117793700D02*
X117550000Y-116943800D01*
X121780100Y-116943800D02*
X139700000Y-134863700D01*
X117550000Y-116943800D02*
X121780100Y-116943800D01*
X139700000Y-134863700D02*
X139700000Y-139065000D01*
X142666300Y-73612300D02*
X137117800Y-73612300D01*
X146194900Y-70083700D02*
X142666300Y-73612300D01*
X135890000Y-73715000D02*
X137015100Y-73715000D01*
X146194900Y-69905000D02*
X146194900Y-70083700D01*
X137117800Y-73612300D02*
X137015100Y-73715000D01*
X147320000Y-69905000D02*
X146194900Y-69905000D01*
X139875600Y-66345600D02*
X134158500Y-66345600D01*
X133357500Y-131372700D02*
X134620000Y-132635200D01*
X143654900Y-62285000D02*
X143654900Y-62566300D01*
X134620000Y-132635200D02*
X134620000Y-139065000D01*
X143654900Y-62566300D02*
X139875600Y-66345600D01*
X144780000Y-62285000D02*
X143654900Y-62285000D01*
X132080000Y-128934200D02*
X132080000Y-139065000D01*
X147328200Y-84181900D02*
X140951000Y-84181900D01*
X131812200Y-97194000D02*
X119240100Y-109766100D01*
X118115000Y-110455000D02*
X119240100Y-110455000D01*
X132972300Y-97194000D02*
X131812200Y-97194000D01*
X135781700Y-94384600D02*
X132972300Y-97194000D01*
X151224900Y-79985000D02*
X151224900Y-80285200D01*
X140951000Y-84181900D02*
X135781700Y-89351200D01*
X119240100Y-109766100D02*
X119240100Y-110455000D01*
X152400000Y-79985000D02*
X151224900Y-79985000D01*
X135781700Y-89351200D02*
X135781700Y-94384600D01*
X151224900Y-80285200D02*
X147328200Y-84181900D01*
M02*
